<svg width="139" height="51" viewBox="0 0 139 51" fill="none" xmlns="http://www.w3.org/2000/svg">
<path fill-rule="evenodd" clip-rule="evenodd" d="M28.3 34.1C22.5 34.1 17.8 29.4 17.8 23.6C17.8 17.8 22.5 13.1 28.3 13.1H126.9C132.7 13.1 137.4 17.8 137.4 23.6C137.4 29.4 132.7 34.1 126.9 34.1H28.3Z" fill="#0051B3"/>
<path d="M126.9 13.9C132.3 13.9 136.6 18.3 136.6 23.6C136.6 28.9 132.2 33.3 126.9 33.3H28.3001C22.9001 33.3 18.6001 28.9 18.6001 23.6C18.6001 18.3 23.0001 13.9 28.3001 13.9H126.9ZM126.9 12.4H28.3001C22.1001 12.4 17.1001 17.4 17.1001 23.6C17.1001 29.8 22.1001 34.8 28.3001 34.8H126.9C133.1 34.8 138.1 29.8 138.1 23.6C138.1 17.4 133.1 12.4 126.9 12.4Z" fill="black"/>
<path fill-rule="evenodd" clip-rule="evenodd" d="M63.6001 29.4H62.3001C60.0001 29.4 58.1001 27.5 58.1001 25.2V22.1C58.1001 19.8 60.0001 17.9 62.3001 17.9H63.6001C65.9001 17.9 67.8001 19.8 67.8001 22.1V25.2C67.8001 27.5 65.9001 29.4 63.6001 29.4Z" fill="#002E63"/>
<path fill-rule="evenodd" clip-rule="evenodd" d="M78.1001 29.4H76.8001C74.5001 29.4 72.6001 27.5 72.6001 25.2V22.1C72.6001 19.8 74.5001 17.9 76.8001 17.9H78.1001C80.4001 17.9 82.3001 19.8 82.3001 22.1V25.2C82.3001 27.5 80.4001 29.4 78.1001 29.4Z" fill="#002E63"/>
<path fill-rule="evenodd" clip-rule="evenodd" d="M92.6001 29.4H91.3001C89.0001 29.4 87.1001 27.5 87.1001 25.2V22.1C87.1001 19.8 89.0001 17.9 91.3001 17.9H92.6001C94.9001 17.9 96.8001 19.8 96.8001 22.1V25.2C96.8001 27.5 94.9001 29.4 92.6001 29.4Z" fill="#002E63"/>
<path fill-rule="evenodd" clip-rule="evenodd" d="M107.1 29.4H105.8C103.5 29.4 101.6 27.5 101.6 25.2V22.1C101.6 19.8 103.5 17.9 105.8 17.9H107.1C109.4 17.9 111.3 19.8 111.3 22.1V25.2C111.3 27.5 109.4 29.4 107.1 29.4Z" fill="#002E63"/>
<path fill-rule="evenodd" clip-rule="evenodd" d="M121.6 29.4H120.3C118 29.4 116.1 27.5 116.1 25.2V22.1C116.1 19.8 118 17.9 120.3 17.9H121.6C123.9 17.9 125.8 19.8 125.8 22.1V25.2C125.8 27.5 123.9 29.4 121.6 29.4Z" fill="#002E63"/>
<path d="M25.2 49.7C11.7 49.7 0.699951 38.7 0.699951 25.2C0.699951 11.7 11.7 0.699951 25.2 0.699951C38.7 0.699951 49.7 11.7 49.7 25.2C49.7 38.7 38.7 49.7 25.2 49.7Z" fill="#002E63"/>
<path d="M25.2 1.5C38.3 1.5 48.9 12.1 48.9 25.2C48.9 38.3 38.3 48.9 25.2 48.9C12.1 48.9 1.5 38.3 1.5 25.2C1.5 12.1 12.1 1.5 25.2 1.5ZM25.2 0C11.3 0 0 11.3 0 25.2C0 39.1 11.3 50.4 25.2 50.4C39.1 50.4 50.4 39.1 50.4 25.2C50.5 11.3 39.1 0 25.2 0Z" fill="black"/>
<path d="M39.6 17.3001L39.8 16.7001C40.6 14.8001 39.8 12.5001 38 11.5001L36 10.4001C35.4 10.1001 34.7 9.90015 34 9.90015C32.8 9.90015 31.7 10.4001 30.9 11.3001L30.2 12.1001C28.4 12.5001 26.6 13.3001 24.9 14.3001C21.8 16.1001 17.7 17.6001 15.3 18.5001C14.6 18.8001 14 19.0001 13.6 19.2001C11.9 19.9001 10.3 21.3001 9.40003 22.3001L8.70003 22.4001C6.60003 22.7001 5.10003 24.6001 5.20003 26.8001L5.30003 29.0001C5.40003 31.0001 7.10003 32.7001 9.10003 32.8001H9.60003C11.7 35.7001 14.9 37.3001 18.9 37.3001C23.1 37.3001 27 35.6001 27.6 35.3001C34.1 32.6001 38.1 29.0001 39.6 24.6001C40.7 21.5001 40.2 18.9001 39.6 17.3001Z" fill="white"/>
<path d="M18.9001 38.7001C14.7001 38.7001 11.2001 37.1001 8.80011 34.2001C6.10011 33.9001 4.00011 31.8001 3.80011 29.1001L3.60011 26.9001C3.50011 24.0001 5.60011 21.4001 8.40011 21.0001H8.60011C9.70011 19.9001 11.2001 18.7001 12.9001 18.0001C13.3001 17.8001 13.9001 17.6001 14.6001 17.3001C17.0001 16.4001 21.0001 14.9001 24.0001 13.2001C25.7001 12.2001 27.5001 11.5001 29.2001 11.0001L29.6001 10.5001C30.7001 9.3001 32.2001 8.6001 33.8001 8.6001C34.7001 8.6001 35.7001 8.8001 36.5001 9.3001L38.5001 10.4001C41.0001 11.8001 42.0001 14.8001 41.0001 17.4001V17.5001C41.6001 19.4001 41.9001 22.1001 40.9001 25.2001C39.3001 30.0001 35.0001 33.9001 28.1001 36.7001C27.5001 36.9001 23.4001 38.7001 18.9001 38.7001Z" fill="white"/>
<path d="M9.1 25.3001L10.8 25.0001C10.8 25.0001 12.8 22.7001 14.7 21.9001C16.3 21.2001 22.1 19.4001 26.4 16.8001C28 15.9001 29.7 15.2001 31.5 14.8001L31.8 14.7001L33.2 13.1001C33.6 12.7001 34.2 12.6001 34.7 12.8001L36.7 13.9001C37.2 14.2001 37.5 14.9001 37.2 15.4001L36.5 17.1001C36.5 17.1001 41.7 26.1001 26.5 32.4001C26.5 32.4001 15.4 37.8001 11.3 29.8001L9.3 29.7001C8.7 29.7001 8.2 29.2001 8.2 28.6001L8 26.6001C8 26.0001 8.4 25.4001 9.1 25.3001Z" fill="#FFD933"/>
<path d="M34 12.9001C34.2 12.9001 34.4 12.9001 34.6 13.0001L36.6 14.1001C37.1 14.4001 37.4 15.1001 37.1 15.6001L36.4 17.3001C36.4 17.3001 41.6 26.3001 26.4 32.6001C26.4 32.6001 22.7 34.4001 18.8 34.4001C15.9 34.4001 12.9 33.4001 11.2 30.0001L9.20003 29.9001C8.60003 29.9001 8.10003 29.4001 8.10003 28.8001L8.00003 26.6001C8.00003 26.0001 8.40003 25.4001 9.00003 25.3001L10.7 25.0001C10.7 25.0001 12.7 22.7001 14.6 21.9001C16.2 21.2001 22 19.4001 26.3 16.8001C27.9 15.9001 29.6 15.2001 31.4 14.8001L31.7 14.7001L33.1 13.1001C33.3 13.0001 33.7 12.9001 34 12.9001ZM34 10.0001C32.8 10.0001 31.7 10.5001 30.9 11.4001L30.2 12.2001C28.4 12.6001 26.6 13.4001 24.9 14.4001C21.8 16.2001 17.7 17.7001 15.3 18.6001C14.6 18.9001 14 19.1001 13.6 19.3001C11.9 20.0001 10.3 21.4001 9.40003 22.4001L8.70003 22.5001C6.60003 22.8001 5.10003 24.7001 5.20003 26.9001L5.30003 29.0001C5.40003 31.0001 7.10003 32.7001 9.10003 32.8001H9.60003C11.7 35.7001 14.9 37.3001 18.9 37.3001C23.1 37.3001 27 35.6001 27.6 35.3001C34.1 32.6001 38.1 29.0001 39.6 24.6001C40.6 21.5001 40.1 18.9001 39.6 17.3001L39.8 16.7001C40.6 14.8001 39.8 12.5001 38 11.5001L36 10.4001C35.4 10.1001 34.7 10.0001 34 10.0001Z" fill="black"/>
<path d="M16.3 28.7C15.2 28.7 14.5 28.6 14.4 28.6C13.6 28.5 13 27.8 13.1 27C13.2 26.2 13.9 25.6 14.7 25.7C14.8 25.7 24.9 26.8 31.1 18.9C31.6 18.3 32.5 18.1 33.1 18.6C33.7 19.1 33.9 20 33.4 20.6C27.9 27.8 20 28.7 16.3 28.7Z" fill="black"/>
</svg>
